# Módulo sanitario El Túnel - proyecto El Dorado
# Modelo 3D a escala real, en metros. Ejes: X este, Y arriba, Z sur.
# Ancho libre 9,83 m x Fondo 5,00 m, tabique 0,15 m, altura de muro 2,80 m.
# Sin techo propio (abierto a la cubierta del galpon) - no se modela cielorraso.
# Generado desde las coordenadas verificadas del plano (shapely, sin solapes).
v 0.0000 -0.0300 0.0000
v 9.8300 -0.0300 0.0000
v 9.8300 -0.0300 5.0000
v 0.0000 -0.0300 5.0000
v 0.0000 0.0000 0.0000
v 9.8300 0.0000 0.0000
v 9.8300 0.0000 5.0000
v 0.0000 0.0000 5.0000
v -0.1500 0.0000 -0.1500
v 9.9800 0.0000 -0.1500
v 9.9800 0.0000 0.0000
v -0.1500 0.0000 0.0000
v -0.1500 2.8000 -0.1500
v 9.9800 2.8000 -0.1500
v 9.9800 2.8000 0.0000
v -0.1500 2.8000 0.0000
v -0.1500 0.0000 -0.1500
v 0.0000 0.0000 -0.1500
v 0.0000 0.0000 5.1500
v -0.1500 0.0000 5.1500
v -0.1500 2.8000 -0.1500
v 0.0000 2.8000 -0.1500
v 0.0000 2.8000 5.1500
v -0.1500 2.8000 5.1500
v 9.8300 0.0000 -0.1500
v 9.9800 0.0000 -0.1500
v 9.9800 0.0000 5.1500
v 9.8300 0.0000 5.1500
v 9.8300 2.8000 -0.1500
v 9.9800 2.8000 -0.1500
v 9.9800 2.8000 5.1500
v 9.8300 2.8000 5.1500
v 4.8400 0.0000 0.0000
v 4.9900 0.0000 0.0000
v 4.9900 0.0000 5.0000
v 4.8400 0.0000 5.0000
v 4.8400 2.8000 0.0000
v 4.9900 2.8000 0.0000
v 4.9900 2.8000 5.0000
v 4.8400 2.8000 5.0000
v 2.3400 0.0000 0.0500
v 2.8400 0.0000 0.0500
v 2.8400 0.0000 0.1900
v 2.3400 0.0000 0.1900
v 2.3400 0.3400 0.0500
v 2.8400 0.3400 0.0500
v 2.8400 0.3400 0.1900
v 2.3400 0.3400 0.1900
v 2.8700 0.0000 0.5500
v 2.8423 0.0000 0.6715
v 2.7646 0.0000 0.7689
v 2.6523 0.0000 0.8230
v 2.5277 0.0000 0.8230
v 2.4154 0.0000 0.7689
v 2.3377 0.0000 0.6715
v 2.3100 0.0000 0.5500
v 2.3377 0.0000 0.4285
v 2.4154 0.0000 0.3311
v 2.5277 0.0000 0.2770
v 2.6523 0.0000 0.2770
v 2.7646 0.0000 0.3311
v 2.8423 0.0000 0.4285
v 2.8700 0.4000 0.5500
v 2.8423 0.4000 0.6715
v 2.7646 0.4000 0.7689
v 2.6523 0.4000 0.8230
v 2.5277 0.4000 0.8230
v 2.4154 0.4000 0.7689
v 2.3377 0.4000 0.6715
v 2.3100 0.4000 0.5500
v 2.3377 0.4000 0.4285
v 2.4154 0.4000 0.3311
v 2.5277 0.4000 0.2770
v 2.6523 0.4000 0.2770
v 2.7646 0.4000 0.3311
v 2.8423 0.4000 0.4285
v 3.0300 0.0000 0.0000
v 3.0500 0.0000 0.0000
v 3.0500 0.0000 1.5000
v 3.0300 0.0000 1.5000
v 3.0300 1.8000 0.0000
v 3.0500 1.8000 0.0000
v 3.0500 1.8000 1.5000
v 3.0300 1.8000 1.5000
v 3.2400 0.0000 0.0500
v 3.7400 0.0000 0.0500
v 3.7400 0.0000 0.1900
v 3.2400 0.0000 0.1900
v 3.2400 0.3400 0.0500
v 3.7400 0.3400 0.0500
v 3.7400 0.3400 0.1900
v 3.2400 0.3400 0.1900
v 3.7700 0.0000 0.5500
v 3.7423 0.0000 0.6715
v 3.6646 0.0000 0.7689
v 3.5523 0.0000 0.8230
v 3.4277 0.0000 0.8230
v 3.3154 0.0000 0.7689
v 3.2377 0.0000 0.6715
v 3.2100 0.0000 0.5500
v 3.2377 0.0000 0.4285
v 3.3154 0.0000 0.3311
v 3.4277 0.0000 0.2770
v 3.5523 0.0000 0.2770
v 3.6646 0.0000 0.3311
v 3.7423 0.0000 0.4285
v 3.7700 0.4000 0.5500
v 3.7423 0.4000 0.6715
v 3.6646 0.4000 0.7689
v 3.5523 0.4000 0.8230
v 3.4277 0.4000 0.8230
v 3.3154 0.4000 0.7689
v 3.2377 0.4000 0.6715
v 3.2100 0.4000 0.5500
v 3.2377 0.4000 0.4285
v 3.3154 0.4000 0.3311
v 3.4277 0.4000 0.2770
v 3.5523 0.4000 0.2770
v 3.6646 0.4000 0.3311
v 3.7423 0.4000 0.4285
v 3.9300 0.0000 0.0000
v 3.9500 0.0000 0.0000
v 3.9500 0.0000 1.5000
v 3.9300 0.0000 1.5000
v 3.9300 1.8000 0.0000
v 3.9500 1.8000 0.0000
v 3.9500 1.8000 1.5000
v 3.9300 1.8000 1.5000
v 4.1400 0.0000 0.0500
v 4.6400 0.0000 0.0500
v 4.6400 0.0000 0.1900
v 4.1400 0.0000 0.1900
v 4.1400 0.3400 0.0500
v 4.6400 0.3400 0.0500
v 4.6400 0.3400 0.1900
v 4.1400 0.3400 0.1900
v 4.6700 0.0000 0.5500
v 4.6423 0.0000 0.6715
v 4.5646 0.0000 0.7689
v 4.4523 0.0000 0.8230
v 4.3277 0.0000 0.8230
v 4.2154 0.0000 0.7689
v 4.1377 0.0000 0.6715
v 4.1100 0.0000 0.5500
v 4.1377 0.0000 0.4285
v 4.2154 0.0000 0.3311
v 4.3277 0.0000 0.2770
v 4.4523 0.0000 0.2770
v 4.5646 0.0000 0.3311
v 4.6423 0.0000 0.4285
v 4.6700 0.4000 0.5500
v 4.6423 0.4000 0.6715
v 4.5646 0.4000 0.7689
v 4.4523 0.4000 0.8230
v 4.3277 0.4000 0.8230
v 4.2154 0.4000 0.7689
v 4.1377 0.4000 0.6715
v 4.1100 0.4000 0.5500
v 4.1377 0.4000 0.4285
v 4.2154 0.4000 0.3311
v 4.3277 0.4000 0.2770
v 4.4523 0.4000 0.2770
v 4.5646 0.4000 0.3311
v 4.6423 0.4000 0.4285
v 2.1300 0.0000 0.0000
v 2.1500 0.0000 0.0000
v 2.1500 0.0000 1.5000
v 2.1300 0.0000 1.5000
v 2.1300 1.8000 0.0000
v 2.1500 1.8000 0.0000
v 2.1500 1.8000 1.5000
v 2.1300 1.8000 1.5000
v 4.8300 0.0000 0.0000
v 4.8500 0.0000 0.0000
v 4.8500 0.0000 1.5000
v 4.8300 0.0000 1.5000
v 4.8300 1.8000 0.0000
v 4.8500 1.8000 0.0000
v 4.8500 1.8000 1.5000
v 4.8300 1.8000 1.5000
v 2.2200 0.0000 1.4900
v 2.9600 0.0000 1.4900
v 2.9600 0.0000 1.5100
v 2.2200 0.0000 1.5100
v 2.2200 1.5500 1.4900
v 2.9600 1.5500 1.4900
v 2.9600 1.5500 1.5100
v 2.2200 1.5500 1.5100
v 3.1200 0.0000 1.4900
v 3.8600 0.0000 1.4900
v 3.8600 0.0000 1.5100
v 3.1200 0.0000 1.5100
v 3.1200 1.5500 1.4900
v 3.8600 1.5500 1.4900
v 3.8600 1.5500 1.5100
v 3.1200 1.5500 1.5100
v 4.0200 0.0000 1.4900
v 4.7600 0.0000 1.4900
v 4.7600 0.0000 1.5100
v 4.0200 0.0000 1.5100
v 4.0200 1.5500 1.4900
v 4.7600 1.5500 1.4900
v 4.7600 1.5500 1.5100
v 4.0200 1.5500 1.5100
v 4.5200 0.3500 1.7750
v 4.8400 0.3500 1.7750
v 4.8400 0.3500 2.3750
v 4.5200 0.3500 2.3750
v 4.5200 0.9700 1.7750
v 4.8400 0.9700 1.7750
v 4.8400 0.9700 2.3750
v 4.5200 0.9700 2.3750
v 4.7100 0.6200 2.0750
v 4.7012 0.6200 2.0962
v 4.6800 0.6200 2.1050
v 4.6588 0.6200 2.0962
v 4.6500 0.6200 2.0750
v 4.6588 0.6200 2.0538
v 4.6800 0.6200 2.0450
v 4.7012 0.6200 2.0538
v 4.7100 0.9700 2.0750
v 4.7012 0.9700 2.0962
v 4.6800 0.9700 2.1050
v 4.6588 0.9700 2.0962
v 4.6500 0.9700 2.0750
v 4.6588 0.9700 2.0538
v 4.6800 0.9700 2.0450
v 4.7012 0.9700 2.0538
v 4.5200 0.3500 2.5250
v 4.8400 0.3500 2.5250
v 4.8400 0.3500 3.1250
v 4.5200 0.3500 3.1250
v 4.5200 0.9700 2.5250
v 4.8400 0.9700 2.5250
v 4.8400 0.9700 3.1250
v 4.5200 0.9700 3.1250
v 4.7100 0.6200 2.8250
v 4.7012 0.6200 2.8462
v 4.6800 0.6200 2.8550
v 4.6588 0.6200 2.8462
v 4.6500 0.6200 2.8250
v 4.6588 0.6200 2.8038
v 4.6800 0.6200 2.7950
v 4.7012 0.6200 2.8038
v 4.7100 0.9700 2.8250
v 4.7012 0.9700 2.8462
v 4.6800 0.9700 2.8550
v 4.6588 0.9700 2.8462
v 4.6500 0.9700 2.8250
v 4.6588 0.9700 2.8038
v 4.6800 0.9700 2.7950
v 4.7012 0.9700 2.8038
v 4.5200 0.3500 3.2750
v 4.8400 0.3500 3.2750
v 4.8400 0.3500 3.8750
v 4.5200 0.3500 3.8750
v 4.5200 0.9700 3.2750
v 4.8400 0.9700 3.2750
v 4.8400 0.9700 3.8750
v 4.5200 0.9700 3.8750
v 4.7100 0.6200 3.5750
v 4.7012 0.6200 3.5962
v 4.6800 0.6200 3.6050
v 4.6588 0.6200 3.5962
v 4.6500 0.6200 3.5750
v 4.6588 0.6200 3.5538
v 4.6800 0.6200 3.5450
v 4.7012 0.6200 3.5538
v 4.7100 0.9700 3.5750
v 4.7012 0.9700 3.5962
v 4.6800 0.9700 3.6050
v 4.6588 0.9700 3.5962
v 4.6500 0.9700 3.5750
v 4.6588 0.9700 3.5538
v 4.6800 0.9700 3.5450
v 4.7012 0.9700 3.5538
v 4.5200 0.3500 4.0250
v 4.8400 0.3500 4.0250
v 4.8400 0.3500 4.6250
v 4.5200 0.3500 4.6250
v 4.5200 0.9700 4.0250
v 4.8400 0.9700 4.0250
v 4.8400 0.9700 4.6250
v 4.5200 0.9700 4.6250
v 4.7100 0.6200 4.3250
v 4.7012 0.6200 4.3462
v 4.6800 0.6200 4.3550
v 4.6588 0.6200 4.3462
v 4.6500 0.6200 4.3250
v 4.6588 0.6200 4.3038
v 4.6800 0.6200 4.2950
v 4.7012 0.6200 4.3038
v 4.7100 0.9700 4.3250
v 4.7012 0.9700 4.3462
v 4.6800 0.9700 4.3550
v 4.6588 0.9700 4.3462
v 4.6500 0.9700 4.3250
v 4.6588 0.9700 4.3038
v 4.6800 0.9700 4.2950
v 4.7012 0.9700 4.3038
v 0.0000 0.4600 1.3000
v 0.5500 0.4600 1.3000
v 0.5500 0.4600 3.7000
v 0.0000 0.4600 3.7000
v 0.0000 0.7600 1.3000
v 0.5500 0.7600 1.3000
v 0.5500 0.7600 3.7000
v 0.0000 0.7600 3.7000
v 0.0000 0.7600 1.3000
v 0.5500 0.7600 1.3000
v 0.5500 0.7600 3.7000
v 0.0000 0.7600 3.7000
v 0.0000 0.8100 1.3000
v 0.5500 0.8100 1.3000
v 0.5500 0.8100 3.7000
v 0.0000 0.8100 3.7000
v 0.4350 0.8100 1.7000
v 0.4228 0.8100 1.7612
v 0.3881 0.8100 1.8131
v 0.3362 0.8100 1.8478
v 0.2750 0.8100 1.8600
v 0.2138 0.8100 1.8478
v 0.1619 0.8100 1.8131
v 0.1272 0.8100 1.7612
v 0.1150 0.8100 1.7000
v 0.1272 0.8100 1.6388
v 0.1619 0.8100 1.5869
v 0.2138 0.8100 1.5522
v 0.2750 0.8100 1.5400
v 0.3362 0.8100 1.5522
v 0.3881 0.8100 1.5869
v 0.4228 0.8100 1.6388
v 0.4350 0.8400 1.7000
v 0.4228 0.8400 1.7612
v 0.3881 0.8400 1.8131
v 0.3362 0.8400 1.8478
v 0.2750 0.8400 1.8600
v 0.2138 0.8400 1.8478
v 0.1619 0.8400 1.8131
v 0.1272 0.8400 1.7612
v 0.1150 0.8400 1.7000
v 0.1272 0.8400 1.6388
v 0.1619 0.8400 1.5869
v 0.2138 0.8400 1.5522
v 0.2750 0.8400 1.5400
v 0.3362 0.8400 1.5522
v 0.3881 0.8400 1.5869
v 0.4228 0.8400 1.6388
v 0.2870 0.8100 1.7000
v 0.2835 0.8100 1.7085
v 0.2750 0.8100 1.7120
v 0.2665 0.8100 1.7085
v 0.2630 0.8100 1.7000
v 0.2665 0.8100 1.6915
v 0.2750 0.8100 1.6880
v 0.2835 0.8100 1.6915
v 0.2870 0.9900 1.7000
v 0.2835 0.9900 1.7085
v 0.2750 0.9900 1.7120
v 0.2665 0.9900 1.7085
v 0.2630 0.9900 1.7000
v 0.2665 0.9900 1.6915
v 0.2750 0.9900 1.6880
v 0.2835 0.9900 1.6915
v 0.4350 0.8100 2.5000
v 0.4228 0.8100 2.5612
v 0.3881 0.8100 2.6131
v 0.3362 0.8100 2.6478
v 0.2750 0.8100 2.6600
v 0.2138 0.8100 2.6478
v 0.1619 0.8100 2.6131
v 0.1272 0.8100 2.5612
v 0.1150 0.8100 2.5000
v 0.1272 0.8100 2.4388
v 0.1619 0.8100 2.3869
v 0.2138 0.8100 2.3522
v 0.2750 0.8100 2.3400
v 0.3362 0.8100 2.3522
v 0.3881 0.8100 2.3869
v 0.4228 0.8100 2.4388
v 0.4350 0.8400 2.5000
v 0.4228 0.8400 2.5612
v 0.3881 0.8400 2.6131
v 0.3362 0.8400 2.6478
v 0.2750 0.8400 2.6600
v 0.2138 0.8400 2.6478
v 0.1619 0.8400 2.6131
v 0.1272 0.8400 2.5612
v 0.1150 0.8400 2.5000
v 0.1272 0.8400 2.4388
v 0.1619 0.8400 2.3869
v 0.2138 0.8400 2.3522
v 0.2750 0.8400 2.3400
v 0.3362 0.8400 2.3522
v 0.3881 0.8400 2.3869
v 0.4228 0.8400 2.4388
v 0.2870 0.8100 2.5000
v 0.2835 0.8100 2.5085
v 0.2750 0.8100 2.5120
v 0.2665 0.8100 2.5085
v 0.2630 0.8100 2.5000
v 0.2665 0.8100 2.4915
v 0.2750 0.8100 2.4880
v 0.2835 0.8100 2.4915
v 0.2870 0.9900 2.5000
v 0.2835 0.9900 2.5085
v 0.2750 0.9900 2.5120
v 0.2665 0.9900 2.5085
v 0.2630 0.9900 2.5000
v 0.2665 0.9900 2.4915
v 0.2750 0.9900 2.4880
v 0.2835 0.9900 2.4915
v 0.4350 0.8100 3.3000
v 0.4228 0.8100 3.3612
v 0.3881 0.8100 3.4131
v 0.3362 0.8100 3.4478
v 0.2750 0.8100 3.4600
v 0.2138 0.8100 3.4478
v 0.1619 0.8100 3.4131
v 0.1272 0.8100 3.3612
v 0.1150 0.8100 3.3000
v 0.1272 0.8100 3.2388
v 0.1619 0.8100 3.1869
v 0.2138 0.8100 3.1522
v 0.2750 0.8100 3.1400
v 0.3362 0.8100 3.1522
v 0.3881 0.8100 3.1869
v 0.4228 0.8100 3.2388
v 0.4350 0.8400 3.3000
v 0.4228 0.8400 3.3612
v 0.3881 0.8400 3.4131
v 0.3362 0.8400 3.4478
v 0.2750 0.8400 3.4600
v 0.2138 0.8400 3.4478
v 0.1619 0.8400 3.4131
v 0.1272 0.8400 3.3612
v 0.1150 0.8400 3.3000
v 0.1272 0.8400 3.2388
v 0.1619 0.8400 3.1869
v 0.2138 0.8400 3.1522
v 0.2750 0.8400 3.1400
v 0.3362 0.8400 3.1522
v 0.3881 0.8400 3.1869
v 0.4228 0.8400 3.2388
v 0.2870 0.8100 3.3000
v 0.2835 0.8100 3.3085
v 0.2750 0.8100 3.3120
v 0.2665 0.8100 3.3085
v 0.2630 0.8100 3.3000
v 0.2665 0.8100 3.2915
v 0.2750 0.8100 3.2880
v 0.2835 0.8100 3.2915
v 0.2870 0.9900 3.3000
v 0.2835 0.9900 3.3085
v 0.2750 0.9900 3.3120
v 0.2665 0.9900 3.3085
v 0.2630 0.9900 3.3000
v 0.2665 0.9900 3.2915
v 0.2750 0.9900 3.2880
v 0.2835 0.9900 3.2915
v 0.0000 0.9000 1.3000
v 0.0200 0.9000 1.3000
v 0.0200 0.9000 3.7000
v 0.0000 0.9000 3.7000
v 0.0000 1.8500 1.3000
v 0.0200 1.8500 1.3000
v 0.0200 1.8500 3.7000
v 0.0000 1.8500 3.7000
v 0.2000 0.4200 0.0000
v 1.8000 0.4200 0.0000
v 1.8000 0.4200 0.4500
v 0.2000 0.4200 0.4500
v 0.2000 0.4700 0.0000
v 1.8000 0.4700 0.0000
v 1.8000 0.4700 0.4500
v 0.2000 0.4700 0.4500
v 0.2800 0.0000 0.0500
v 0.3300 0.0000 0.0500
v 0.3300 0.0000 0.1000
v 0.2800 0.0000 0.1000
v 0.2800 0.4200 0.0500
v 0.3300 0.4200 0.0500
v 0.3300 0.4200 0.1000
v 0.2800 0.4200 0.1000
v 0.2800 0.0000 0.3500
v 0.3300 0.0000 0.3500
v 0.3300 0.0000 0.4000
v 0.2800 0.0000 0.4000
v 0.2800 0.4200 0.3500
v 0.3300 0.4200 0.3500
v 0.3300 0.4200 0.4000
v 0.2800 0.4200 0.4000
v 1.6700 0.0000 0.0500
v 1.7200 0.0000 0.0500
v 1.7200 0.0000 0.1000
v 1.6700 0.0000 0.1000
v 1.6700 0.4200 0.0500
v 1.7200 0.4200 0.0500
v 1.7200 0.4200 0.1000
v 1.6700 0.4200 0.1000
v 1.6700 0.0000 0.3500
v 1.7200 0.0000 0.3500
v 1.7200 0.0000 0.4000
v 1.6700 0.0000 0.4000
v 1.6700 0.4200 0.3500
v 1.7200 0.4200 0.3500
v 1.7200 0.4200 0.4000
v 1.6700 0.4200 0.4000
v 0.2000 0.0000 4.9800
v 1.1000 0.0000 4.9800
v 1.1000 0.0000 5.0200
v 0.2000 0.0000 5.0200
v 0.2000 2.1000 4.9800
v 1.1000 2.1000 4.9800
v 1.1000 2.1000 5.0200
v 0.2000 2.1000 5.0200
v 5.1900 0.0000 0.0500
v 5.6900 0.0000 0.0500
v 5.6900 0.0000 0.1900
v 5.1900 0.0000 0.1900
v 5.1900 0.3400 0.0500
v 5.6900 0.3400 0.0500
v 5.6900 0.3400 0.1900
v 5.1900 0.3400 0.1900
v 5.7200 0.0000 0.5500
v 5.6923 0.0000 0.6715
v 5.6146 0.0000 0.7689
v 5.5023 0.0000 0.8230
v 5.3777 0.0000 0.8230
v 5.2654 0.0000 0.7689
v 5.1877 0.0000 0.6715
v 5.1600 0.0000 0.5500
v 5.1877 0.0000 0.4285
v 5.2654 0.0000 0.3311
v 5.3777 0.0000 0.2770
v 5.5023 0.0000 0.2770
v 5.6146 0.0000 0.3311
v 5.6923 0.0000 0.4285
v 5.7200 0.4000 0.5500
v 5.6923 0.4000 0.6715
v 5.6146 0.4000 0.7689
v 5.5023 0.4000 0.8230
v 5.3777 0.4000 0.8230
v 5.2654 0.4000 0.7689
v 5.1877 0.4000 0.6715
v 5.1600 0.4000 0.5500
v 5.1877 0.4000 0.4285
v 5.2654 0.4000 0.3311
v 5.3777 0.4000 0.2770
v 5.5023 0.4000 0.2770
v 5.6146 0.4000 0.3311
v 5.6923 0.4000 0.4285
v 5.8800 0.0000 0.0000
v 5.9000 0.0000 0.0000
v 5.9000 0.0000 1.5000
v 5.8800 0.0000 1.5000
v 5.8800 1.8000 0.0000
v 5.9000 1.8000 0.0000
v 5.9000 1.8000 1.5000
v 5.8800 1.8000 1.5000
v 6.0900 0.0000 0.0500
v 6.5900 0.0000 0.0500
v 6.5900 0.0000 0.1900
v 6.0900 0.0000 0.1900
v 6.0900 0.3400 0.0500
v 6.5900 0.3400 0.0500
v 6.5900 0.3400 0.1900
v 6.0900 0.3400 0.1900
v 6.6200 0.0000 0.5500
v 6.5923 0.0000 0.6715
v 6.5146 0.0000 0.7689
v 6.4023 0.0000 0.8230
v 6.2777 0.0000 0.8230
v 6.1654 0.0000 0.7689
v 6.0877 0.0000 0.6715
v 6.0600 0.0000 0.5500
v 6.0877 0.0000 0.4285
v 6.1654 0.0000 0.3311
v 6.2777 0.0000 0.2770
v 6.4023 0.0000 0.2770
v 6.5146 0.0000 0.3311
v 6.5923 0.0000 0.4285
v 6.6200 0.4000 0.5500
v 6.5923 0.4000 0.6715
v 6.5146 0.4000 0.7689
v 6.4023 0.4000 0.8230
v 6.2777 0.4000 0.8230
v 6.1654 0.4000 0.7689
v 6.0877 0.4000 0.6715
v 6.0600 0.4000 0.5500
v 6.0877 0.4000 0.4285
v 6.1654 0.4000 0.3311
v 6.2777 0.4000 0.2770
v 6.4023 0.4000 0.2770
v 6.5146 0.4000 0.3311
v 6.5923 0.4000 0.4285
v 6.7800 0.0000 0.0000
v 6.8000 0.0000 0.0000
v 6.8000 0.0000 1.5000
v 6.7800 0.0000 1.5000
v 6.7800 1.8000 0.0000
v 6.8000 1.8000 0.0000
v 6.8000 1.8000 1.5000
v 6.7800 1.8000 1.5000
v 6.9900 0.0000 0.0500
v 7.4900 0.0000 0.0500
v 7.4900 0.0000 0.1900
v 6.9900 0.0000 0.1900
v 6.9900 0.3400 0.0500
v 7.4900 0.3400 0.0500
v 7.4900 0.3400 0.1900
v 6.9900 0.3400 0.1900
v 7.5200 0.0000 0.5500
v 7.4923 0.0000 0.6715
v 7.4146 0.0000 0.7689
v 7.3023 0.0000 0.8230
v 7.1777 0.0000 0.8230
v 7.0654 0.0000 0.7689
v 6.9877 0.0000 0.6715
v 6.9600 0.0000 0.5500
v 6.9877 0.0000 0.4285
v 7.0654 0.0000 0.3311
v 7.1777 0.0000 0.2770
v 7.3023 0.0000 0.2770
v 7.4146 0.0000 0.3311
v 7.4923 0.0000 0.4285
v 7.5200 0.4000 0.5500
v 7.4923 0.4000 0.6715
v 7.4146 0.4000 0.7689
v 7.3023 0.4000 0.8230
v 7.1777 0.4000 0.8230
v 7.0654 0.4000 0.7689
v 6.9877 0.4000 0.6715
v 6.9600 0.4000 0.5500
v 6.9877 0.4000 0.4285
v 7.0654 0.4000 0.3311
v 7.1777 0.4000 0.2770
v 7.3023 0.4000 0.2770
v 7.4146 0.4000 0.3311
v 7.4923 0.4000 0.4285
v 4.9800 0.0000 0.0000
v 5.0000 0.0000 0.0000
v 5.0000 0.0000 1.5000
v 4.9800 0.0000 1.5000
v 4.9800 1.8000 0.0000
v 5.0000 1.8000 0.0000
v 5.0000 1.8000 1.5000
v 4.9800 1.8000 1.5000
v 7.6800 0.0000 0.0000
v 7.7000 0.0000 0.0000
v 7.7000 0.0000 1.5000
v 7.6800 0.0000 1.5000
v 7.6800 1.8000 0.0000
v 7.7000 1.8000 0.0000
v 7.7000 1.8000 1.5000
v 7.6800 1.8000 1.5000
v 5.0700 0.0000 1.4900
v 5.8100 0.0000 1.4900
v 5.8100 0.0000 1.5100
v 5.0700 0.0000 1.5100
v 5.0700 1.5500 1.4900
v 5.8100 1.5500 1.4900
v 5.8100 1.5500 1.5100
v 5.0700 1.5500 1.5100
v 5.9700 0.0000 1.4900
v 6.7100 0.0000 1.4900
v 6.7100 0.0000 1.5100
v 5.9700 0.0000 1.5100
v 5.9700 1.5500 1.4900
v 6.7100 1.5500 1.4900
v 6.7100 1.5500 1.5100
v 5.9700 1.5500 1.5100
v 6.8700 0.0000 1.4900
v 7.6100 0.0000 1.4900
v 7.6100 0.0000 1.5100
v 6.8700 0.0000 1.5100
v 6.8700 1.5500 1.4900
v 7.6100 1.5500 1.4900
v 7.6100 1.5500 1.5100
v 6.8700 1.5500 1.5100
v 4.9900 0.3500 1.7750
v 5.3100 0.3500 1.7750
v 5.3100 0.3500 2.3750
v 4.9900 0.3500 2.3750
v 4.9900 0.9700 1.7750
v 5.3100 0.9700 1.7750
v 5.3100 0.9700 2.3750
v 4.9900 0.9700 2.3750
v 5.1800 0.6200 2.0750
v 5.1712 0.6200 2.0962
v 5.1500 0.6200 2.1050
v 5.1288 0.6200 2.0962
v 5.1200 0.6200 2.0750
v 5.1288 0.6200 2.0538
v 5.1500 0.6200 2.0450
v 5.1712 0.6200 2.0538
v 5.1800 0.9700 2.0750
v 5.1712 0.9700 2.0962
v 5.1500 0.9700 2.1050
v 5.1288 0.9700 2.0962
v 5.1200 0.9700 2.0750
v 5.1288 0.9700 2.0538
v 5.1500 0.9700 2.0450
v 5.1712 0.9700 2.0538
v 4.9900 0.3500 2.5250
v 5.3100 0.3500 2.5250
v 5.3100 0.3500 3.1250
v 4.9900 0.3500 3.1250
v 4.9900 0.9700 2.5250
v 5.3100 0.9700 2.5250
v 5.3100 0.9700 3.1250
v 4.9900 0.9700 3.1250
v 5.1800 0.6200 2.8250
v 5.1712 0.6200 2.8462
v 5.1500 0.6200 2.8550
v 5.1288 0.6200 2.8462
v 5.1200 0.6200 2.8250
v 5.1288 0.6200 2.8038
v 5.1500 0.6200 2.7950
v 5.1712 0.6200 2.8038
v 5.1800 0.9700 2.8250
v 5.1712 0.9700 2.8462
v 5.1500 0.9700 2.8550
v 5.1288 0.9700 2.8462
v 5.1200 0.9700 2.8250
v 5.1288 0.9700 2.8038
v 5.1500 0.9700 2.7950
v 5.1712 0.9700 2.8038
v 4.9900 0.3500 3.2750
v 5.3100 0.3500 3.2750
v 5.3100 0.3500 3.8750
v 4.9900 0.3500 3.8750
v 4.9900 0.9700 3.2750
v 5.3100 0.9700 3.2750
v 5.3100 0.9700 3.8750
v 4.9900 0.9700 3.8750
v 5.1800 0.6200 3.5750
v 5.1712 0.6200 3.5962
v 5.1500 0.6200 3.6050
v 5.1288 0.6200 3.5962
v 5.1200 0.6200 3.5750
v 5.1288 0.6200 3.5538
v 5.1500 0.6200 3.5450
v 5.1712 0.6200 3.5538
v 5.1800 0.9700 3.5750
v 5.1712 0.9700 3.5962
v 5.1500 0.9700 3.6050
v 5.1288 0.9700 3.5962
v 5.1200 0.9700 3.5750
v 5.1288 0.9700 3.5538
v 5.1500 0.9700 3.5450
v 5.1712 0.9700 3.5538
v 4.9900 0.3500 4.0250
v 5.3100 0.3500 4.0250
v 5.3100 0.3500 4.6250
v 4.9900 0.3500 4.6250
v 4.9900 0.9700 4.0250
v 5.3100 0.9700 4.0250
v 5.3100 0.9700 4.6250
v 4.9900 0.9700 4.6250
v 5.1800 0.6200 4.3250
v 5.1712 0.6200 4.3462
v 5.1500 0.6200 4.3550
v 5.1288 0.6200 4.3462
v 5.1200 0.6200 4.3250
v 5.1288 0.6200 4.3038
v 5.1500 0.6200 4.2950
v 5.1712 0.6200 4.3038
v 5.1800 0.9700 4.3250
v 5.1712 0.9700 4.3462
v 5.1500 0.9700 4.3550
v 5.1288 0.9700 4.3462
v 5.1200 0.9700 4.3250
v 5.1288 0.9700 4.3038
v 5.1500 0.9700 4.2950
v 5.1712 0.9700 4.3038
v 9.2800 0.4600 1.3000
v 9.8300 0.4600 1.3000
v 9.8300 0.4600 3.7000
v 9.2800 0.4600 3.7000
v 9.2800 0.7600 1.3000
v 9.8300 0.7600 1.3000
v 9.8300 0.7600 3.7000
v 9.2800 0.7600 3.7000
v 9.2800 0.7600 1.3000
v 9.8300 0.7600 1.3000
v 9.8300 0.7600 3.7000
v 9.2800 0.7600 3.7000
v 9.2800 0.8100 1.3000
v 9.8300 0.8100 1.3000
v 9.8300 0.8100 3.7000
v 9.2800 0.8100 3.7000
v 9.7150 0.8100 1.7000
v 9.7028 0.8100 1.7612
v 9.6681 0.8100 1.8131
v 9.6162 0.8100 1.8478
v 9.5550 0.8100 1.8600
v 9.4938 0.8100 1.8478
v 9.4419 0.8100 1.8131
v 9.4072 0.8100 1.7612
v 9.3950 0.8100 1.7000
v 9.4072 0.8100 1.6388
v 9.4419 0.8100 1.5869
v 9.4938 0.8100 1.5522
v 9.5550 0.8100 1.5400
v 9.6162 0.8100 1.5522
v 9.6681 0.8100 1.5869
v 9.7028 0.8100 1.6388
v 9.7150 0.8400 1.7000
v 9.7028 0.8400 1.7612
v 9.6681 0.8400 1.8131
v 9.6162 0.8400 1.8478
v 9.5550 0.8400 1.8600
v 9.4938 0.8400 1.8478
v 9.4419 0.8400 1.8131
v 9.4072 0.8400 1.7612
v 9.3950 0.8400 1.7000
v 9.4072 0.8400 1.6388
v 9.4419 0.8400 1.5869
v 9.4938 0.8400 1.5522
v 9.5550 0.8400 1.5400
v 9.6162 0.8400 1.5522
v 9.6681 0.8400 1.5869
v 9.7028 0.8400 1.6388
v 9.5670 0.8100 1.7000
v 9.5635 0.8100 1.7085
v 9.5550 0.8100 1.7120
v 9.5465 0.8100 1.7085
v 9.5430 0.8100 1.7000
v 9.5465 0.8100 1.6915
v 9.5550 0.8100 1.6880
v 9.5635 0.8100 1.6915
v 9.5670 0.9900 1.7000
v 9.5635 0.9900 1.7085
v 9.5550 0.9900 1.7120
v 9.5465 0.9900 1.7085
v 9.5430 0.9900 1.7000
v 9.5465 0.9900 1.6915
v 9.5550 0.9900 1.6880
v 9.5635 0.9900 1.6915
v 9.7150 0.8100 2.5000
v 9.7028 0.8100 2.5612
v 9.6681 0.8100 2.6131
v 9.6162 0.8100 2.6478
v 9.5550 0.8100 2.6600
v 9.4938 0.8100 2.6478
v 9.4419 0.8100 2.6131
v 9.4072 0.8100 2.5612
v 9.3950 0.8100 2.5000
v 9.4072 0.8100 2.4388
v 9.4419 0.8100 2.3869
v 9.4938 0.8100 2.3522
v 9.5550 0.8100 2.3400
v 9.6162 0.8100 2.3522
v 9.6681 0.8100 2.3869
v 9.7028 0.8100 2.4388
v 9.7150 0.8400 2.5000
v 9.7028 0.8400 2.5612
v 9.6681 0.8400 2.6131
v 9.6162 0.8400 2.6478
v 9.5550 0.8400 2.6600
v 9.4938 0.8400 2.6478
v 9.4419 0.8400 2.6131
v 9.4072 0.8400 2.5612
v 9.3950 0.8400 2.5000
v 9.4072 0.8400 2.4388
v 9.4419 0.8400 2.3869
v 9.4938 0.8400 2.3522
v 9.5550 0.8400 2.3400
v 9.6162 0.8400 2.3522
v 9.6681 0.8400 2.3869
v 9.7028 0.8400 2.4388
v 9.5670 0.8100 2.5000
v 9.5635 0.8100 2.5085
v 9.5550 0.8100 2.5120
v 9.5465 0.8100 2.5085
v 9.5430 0.8100 2.5000
v 9.5465 0.8100 2.4915
v 9.5550 0.8100 2.4880
v 9.5635 0.8100 2.4915
v 9.5670 0.9900 2.5000
v 9.5635 0.9900 2.5085
v 9.5550 0.9900 2.5120
v 9.5465 0.9900 2.5085
v 9.5430 0.9900 2.5000
v 9.5465 0.9900 2.4915
v 9.5550 0.9900 2.4880
v 9.5635 0.9900 2.4915
v 9.7150 0.8100 3.3000
v 9.7028 0.8100 3.3612
v 9.6681 0.8100 3.4131
v 9.6162 0.8100 3.4478
v 9.5550 0.8100 3.4600
v 9.4938 0.8100 3.4478
v 9.4419 0.8100 3.4131
v 9.4072 0.8100 3.3612
v 9.3950 0.8100 3.3000
v 9.4072 0.8100 3.2388
v 9.4419 0.8100 3.1869
v 9.4938 0.8100 3.1522
v 9.5550 0.8100 3.1400
v 9.6162 0.8100 3.1522
v 9.6681 0.8100 3.1869
v 9.7028 0.8100 3.2388
v 9.7150 0.8400 3.3000
v 9.7028 0.8400 3.3612
v 9.6681 0.8400 3.4131
v 9.6162 0.8400 3.4478
v 9.5550 0.8400 3.4600
v 9.4938 0.8400 3.4478
v 9.4419 0.8400 3.4131
v 9.4072 0.8400 3.3612
v 9.3950 0.8400 3.3000
v 9.4072 0.8400 3.2388
v 9.4419 0.8400 3.1869
v 9.4938 0.8400 3.1522
v 9.5550 0.8400 3.1400
v 9.6162 0.8400 3.1522
v 9.6681 0.8400 3.1869
v 9.7028 0.8400 3.2388
v 9.5670 0.8100 3.3000
v 9.5635 0.8100 3.3085
v 9.5550 0.8100 3.3120
v 9.5465 0.8100 3.3085
v 9.5430 0.8100 3.3000
v 9.5465 0.8100 3.2915
v 9.5550 0.8100 3.2880
v 9.5635 0.8100 3.2915
v 9.5670 0.9900 3.3000
v 9.5635 0.9900 3.3085
v 9.5550 0.9900 3.3120
v 9.5465 0.9900 3.3085
v 9.5430 0.9900 3.3000
v 9.5465 0.9900 3.2915
v 9.5550 0.9900 3.2880
v 9.5635 0.9900 3.2915
v 9.8100 0.9000 1.3000
v 9.8300 0.9000 1.3000
v 9.8300 0.9000 3.7000
v 9.8100 0.9000 3.7000
v 9.8100 1.8500 1.3000
v 9.8300 1.8500 1.3000
v 9.8300 1.8500 3.7000
v 9.8100 1.8500 3.7000
v 8.0300 0.4200 0.0000
v 9.6300 0.4200 0.0000
v 9.6300 0.4200 0.4500
v 8.0300 0.4200 0.4500
v 8.0300 0.4700 0.0000
v 9.6300 0.4700 0.0000
v 9.6300 0.4700 0.4500
v 8.0300 0.4700 0.4500
v 8.1100 0.0000 0.0500
v 8.1600 0.0000 0.0500
v 8.1600 0.0000 0.1000
v 8.1100 0.0000 0.1000
v 8.1100 0.4200 0.0500
v 8.1600 0.4200 0.0500
v 8.1600 0.4200 0.1000
v 8.1100 0.4200 0.1000
v 8.1100 0.0000 0.3500
v 8.1600 0.0000 0.3500
v 8.1600 0.0000 0.4000
v 8.1100 0.0000 0.4000
v 8.1100 0.4200 0.3500
v 8.1600 0.4200 0.3500
v 8.1600 0.4200 0.4000
v 8.1100 0.4200 0.4000
v 9.5000 0.0000 0.0500
v 9.5500 0.0000 0.0500
v 9.5500 0.0000 0.1000
v 9.5000 0.0000 0.1000
v 9.5000 0.4200 0.0500
v 9.5500 0.4200 0.0500
v 9.5500 0.4200 0.1000
v 9.5000 0.4200 0.1000
v 9.5000 0.0000 0.3500
v 9.5500 0.0000 0.3500
v 9.5500 0.0000 0.4000
v 9.5000 0.0000 0.4000
v 9.5000 0.4200 0.3500
v 9.5500 0.4200 0.3500
v 9.5500 0.4200 0.4000
v 9.5000 0.4200 0.4000
v 8.7300 0.0000 4.9800
v 9.6300 0.0000 4.9800
v 9.6300 0.0000 5.0200
v 8.7300 0.0000 5.0200
v 8.7300 2.1000 4.9800
v 9.6300 2.1000 4.9800
v 9.6300 2.1000 5.0200
v 8.7300 2.1000 5.0200
g PISO_epoxico_gris_cemento
f 1 2 3 4
f 5 8 7 6
f 1 5 6 2
f 2 6 7 3
f 3 7 8 4
f 4 8 5 1
g muro_trasero
f 9 10 11 12
f 13 16 15 14
f 9 13 14 10
f 10 14 15 11
f 11 15 16 12
f 12 16 13 9
g muro_lateral_izq
f 17 18 19 20
f 21 24 23 22
f 17 21 22 18
f 18 22 23 19
f 19 23 24 20
f 20 24 21 17
g muro_lateral_der
f 25 26 27 28
f 29 32 31 30
f 25 29 30 26
f 26 30 31 27
f 27 31 32 28
f 28 32 29 25
g tabique_central
f 33 34 35 36
f 37 40 39 38
f 33 37 38 34
f 34 38 39 35
f 35 39 40 36
f 36 40 37 33
g inodoro_tanque_A1
f 41 42 43 44
f 45 48 47 46
f 41 45 46 42
f 42 46 47 43
f 43 47 48 44
f 44 48 45 41
g inodoro_taza_A1
f 49 50 64 63
f 50 51 65 64
f 51 52 66 65
f 52 53 67 66
f 53 54 68 67
f 54 55 69 68
f 55 56 70 69
f 56 57 71 70
f 57 58 72 71
f 58 59 73 72
f 59 60 74 73
f 60 61 75 74
f 61 62 76 75
f 62 49 63 76
f 49 50 51 52 53 54 55 56 57 58 59 60 61 62
f 76 75 74 73 72 71 70 69 68 67 66 65 64 63
g tabiqueria_fenolico_A
f 77 78 79 80
f 81 84 83 82
f 77 81 82 78
f 78 82 83 79
f 79 83 84 80
f 80 84 81 77
g inodoro_tanque_A2
f 85 86 87 88
f 89 92 91 90
f 85 89 90 86
f 86 90 91 87
f 87 91 92 88
f 88 92 89 85
g inodoro_taza_A2
f 93 94 108 107
f 94 95 109 108
f 95 96 110 109
f 96 97 111 110
f 97 98 112 111
f 98 99 113 112
f 99 100 114 113
f 100 101 115 114
f 101 102 116 115
f 102 103 117 116
f 103 104 118 117
f 104 105 119 118
f 105 106 120 119
f 106 93 107 120
f 93 94 95 96 97 98 99 100 101 102 103 104 105 106
f 120 119 118 117 116 115 114 113 112 111 110 109 108 107
g tabiqueria_fenolico_A
f 121 122 123 124
f 125 128 127 126
f 121 125 126 122
f 122 126 127 123
f 123 127 128 124
f 124 128 125 121
g inodoro_tanque_A3
f 129 130 131 132
f 133 136 135 134
f 129 133 134 130
f 130 134 135 131
f 131 135 136 132
f 132 136 133 129
g inodoro_taza_A3
f 137 138 152 151
f 138 139 153 152
f 139 140 154 153
f 140 141 155 154
f 141 142 156 155
f 142 143 157 156
f 143 144 158 157
f 144 145 159 158
f 145 146 160 159
f 146 147 161 160
f 147 148 162 161
f 148 149 163 162
f 149 150 164 163
f 150 137 151 164
f 137 138 139 140 141 142 143 144 145 146 147 148 149 150
f 164 163 162 161 160 159 158 157 156 155 154 153 152 151
g tabiqueria_fenolico_A
f 165 166 167 168
f 169 172 171 170
f 165 169 170 166
f 166 170 171 167
f 167 171 172 168
f 168 172 169 165
g tabiqueria_fenolico_A
f 173 174 175 176
f 177 180 179 178
f 173 177 178 174
f 174 178 179 175
f 175 179 180 176
f 176 180 177 173
g PUERTA_CUBICULO_A1
f 181 182 183 184
f 185 188 187 186
f 181 185 186 182
f 182 186 187 183
f 183 187 188 184
f 184 188 185 181
g PUERTA_CUBICULO_A2
f 189 190 191 192
f 193 196 195 194
f 189 193 194 190
f 190 194 195 191
f 191 195 196 192
f 192 196 193 189
g PUERTA_CUBICULO_A3
f 197 198 199 200
f 201 204 203 202
f 197 201 202 198
f 198 202 203 199
f 199 203 204 200
f 200 204 201 197
g urinario_1
f 205 206 207 208
f 209 212 211 210
f 205 209 210 206
f 206 210 211 207
f 207 211 212 208
f 208 212 209 205
g tuberia_fluxometro_1
f 213 214 222 221
f 214 215 223 222
f 215 216 224 223
f 216 217 225 224
f 217 218 226 225
f 218 219 227 226
f 219 220 228 227
f 220 213 221 228
f 213 214 215 216 217 218 219 220
f 228 227 226 225 224 223 222 221
g urinario_2
f 229 230 231 232
f 233 236 235 234
f 229 233 234 230
f 230 234 235 231
f 231 235 236 232
f 232 236 233 229
g tuberia_fluxometro_2
f 237 238 246 245
f 238 239 247 246
f 239 240 248 247
f 240 241 249 248
f 241 242 250 249
f 242 243 251 250
f 243 244 252 251
f 244 237 245 252
f 237 238 239 240 241 242 243 244
f 252 251 250 249 248 247 246 245
g urinario_3
f 253 254 255 256
f 257 260 259 258
f 253 257 258 254
f 254 258 259 255
f 255 259 260 256
f 256 260 257 253
g tuberia_fluxometro_3
f 261 262 270 269
f 262 263 271 270
f 263 264 272 271
f 264 265 273 272
f 265 266 274 273
f 266 267 275 274
f 267 268 276 275
f 268 261 269 276
f 261 262 263 264 265 266 267 268
f 276 275 274 273 272 271 270 269
g urinario_4
f 277 278 279 280
f 281 284 283 282
f 277 281 282 278
f 278 282 283 279
f 279 283 284 280
f 280 284 281 277
g tuberia_fluxometro_4
f 285 286 294 293
f 286 287 295 294
f 287 288 296 295
f 288 289 297 296
f 289 290 298 297
f 290 291 299 298
f 291 292 300 299
f 292 285 293 300
f 285 286 287 288 289 290 291 292
f 300 299 298 297 296 295 294 293
g meson_frente_concreto
f 301 302 303 304
f 305 308 307 306
f 301 305 306 302
f 302 306 307 303
f 303 307 308 304
f 304 308 305 301
g meson_tope_concreto
f 309 310 311 312
f 313 316 315 314
f 309 313 314 310
f 310 314 315 311
f 311 315 316 312
f 312 316 313 309
g lavamanos_1
f 317 318 334 333
f 318 319 335 334
f 319 320 336 335
f 320 321 337 336
f 321 322 338 337
f 322 323 339 338
f 323 324 340 339
f 324 325 341 340
f 325 326 342 341
f 326 327 343 342
f 327 328 344 343
f 328 329 345 344
f 329 330 346 345
f 330 331 347 346
f 331 332 348 347
f 332 317 333 348
f 317 318 319 320 321 322 323 324 325 326 327 328 329 330 331 332
f 348 347 346 345 344 343 342 341 340 339 338 337 336 335 334 333
g griferia_1
f 349 350 358 357
f 350 351 359 358
f 351 352 360 359
f 352 353 361 360
f 353 354 362 361
f 354 355 363 362
f 355 356 364 363
f 356 349 357 364
f 349 350 351 352 353 354 355 356
f 364 363 362 361 360 359 358 357
g lavamanos_2
f 365 366 382 381
f 366 367 383 382
f 367 368 384 383
f 368 369 385 384
f 369 370 386 385
f 370 371 387 386
f 371 372 388 387
f 372 373 389 388
f 373 374 390 389
f 374 375 391 390
f 375 376 392 391
f 376 377 393 392
f 377 378 394 393
f 378 379 395 394
f 379 380 396 395
f 380 365 381 396
f 365 366 367 368 369 370 371 372 373 374 375 376 377 378 379 380
f 396 395 394 393 392 391 390 389 388 387 386 385 384 383 382 381
g griferia_2
f 397 398 406 405
f 398 399 407 406
f 399 400 408 407
f 400 401 409 408
f 401 402 410 409
f 402 403 411 410
f 403 404 412 411
f 404 397 405 412
f 397 398 399 400 401 402 403 404
f 412 411 410 409 408 407 406 405
g lavamanos_3
f 413 414 430 429
f 414 415 431 430
f 415 416 432 431
f 416 417 433 432
f 417 418 434 433
f 418 419 435 434
f 419 420 436 435
f 420 421 437 436
f 421 422 438 437
f 422 423 439 438
f 423 424 440 439
f 424 425 441 440
f 425 426 442 441
f 426 427 443 442
f 427 428 444 443
f 428 413 429 444
f 413 414 415 416 417 418 419 420 421 422 423 424 425 426 427 428
f 444 443 442 441 440 439 438 437 436 435 434 433 432 431 430 429
g griferia_3
f 445 446 454 453
f 446 447 455 454
f 447 448 456 455
f 448 449 457 456
f 449 450 458 457
f 450 451 459 458
f 451 452 460 459
f 452 445 453 460
f 445 446 447 448 449 450 451 452
f 460 459 458 457 456 455 454 453
g espejo
f 461 462 463 464
f 465 468 467 466
f 461 465 466 462
f 462 466 467 463
f 463 467 468 464
f 464 468 465 461
g banco_asiento
f 469 470 471 472
f 473 476 475 474
f 469 473 474 470
f 470 474 475 471
f 471 475 476 472
f 472 476 473 469
g banco_pata_metal
f 477 478 479 480
f 481 484 483 482
f 477 481 482 478
f 478 482 483 479
f 479 483 484 480
f 480 484 481 477
g banco_pata_metal
f 485 486 487 488
f 489 492 491 490
f 485 489 490 486
f 486 490 491 487
f 487 491 492 488
f 488 492 489 485
g banco_pata_metal
f 493 494 495 496
f 497 500 499 498
f 493 497 498 494
f 494 498 499 495
f 495 499 500 496
f 496 500 497 493
g banco_pata_metal
f 501 502 503 504
f 505 508 507 506
f 501 505 506 502
f 502 506 507 503
f 503 507 508 504
f 504 508 505 501
g PUERTA_ACCESO_negro_mate
f 509 510 511 512
f 513 516 515 514
f 509 513 514 510
f 510 514 515 511
f 511 515 516 512
f 512 516 513 509
g inodoro_tanque_B1
f 517 518 519 520
f 521 524 523 522
f 517 521 522 518
f 518 522 523 519
f 519 523 524 520
f 520 524 521 517
g inodoro_taza_B1
f 525 526 540 539
f 526 527 541 540
f 527 528 542 541
f 528 529 543 542
f 529 530 544 543
f 530 531 545 544
f 531 532 546 545
f 532 533 547 546
f 533 534 548 547
f 534 535 549 548
f 535 536 550 549
f 536 537 551 550
f 537 538 552 551
f 538 525 539 552
f 525 526 527 528 529 530 531 532 533 534 535 536 537 538
f 552 551 550 549 548 547 546 545 544 543 542 541 540 539
g tabiqueria_fenolico_B
f 553 554 555 556
f 557 560 559 558
f 553 557 558 554
f 554 558 559 555
f 555 559 560 556
f 556 560 557 553
g inodoro_tanque_B2
f 561 562 563 564
f 565 568 567 566
f 561 565 566 562
f 562 566 567 563
f 563 567 568 564
f 564 568 565 561
g inodoro_taza_B2
f 569 570 584 583
f 570 571 585 584
f 571 572 586 585
f 572 573 587 586
f 573 574 588 587
f 574 575 589 588
f 575 576 590 589
f 576 577 591 590
f 577 578 592 591
f 578 579 593 592
f 579 580 594 593
f 580 581 595 594
f 581 582 596 595
f 582 569 583 596
f 569 570 571 572 573 574 575 576 577 578 579 580 581 582
f 596 595 594 593 592 591 590 589 588 587 586 585 584 583
g tabiqueria_fenolico_B
f 597 598 599 600
f 601 604 603 602
f 597 601 602 598
f 598 602 603 599
f 599 603 604 600
f 600 604 601 597
g inodoro_tanque_B3
f 605 606 607 608
f 609 612 611 610
f 605 609 610 606
f 606 610 611 607
f 607 611 612 608
f 608 612 609 605
g inodoro_taza_B3
f 613 614 628 627
f 614 615 629 628
f 615 616 630 629
f 616 617 631 630
f 617 618 632 631
f 618 619 633 632
f 619 620 634 633
f 620 621 635 634
f 621 622 636 635
f 622 623 637 636
f 623 624 638 637
f 624 625 639 638
f 625 626 640 639
f 626 613 627 640
f 613 614 615 616 617 618 619 620 621 622 623 624 625 626
f 640 639 638 637 636 635 634 633 632 631 630 629 628 627
g tabiqueria_fenolico_B
f 641 642 643 644
f 645 648 647 646
f 641 645 646 642
f 642 646 647 643
f 643 647 648 644
f 644 648 645 641
g tabiqueria_fenolico_B
f 649 650 651 652
f 653 656 655 654
f 649 653 654 650
f 650 654 655 651
f 651 655 656 652
f 652 656 653 649
g PUERTA_CUBICULO_B1
f 657 658 659 660
f 661 664 663 662
f 657 661 662 658
f 658 662 663 659
f 659 663 664 660
f 660 664 661 657
g PUERTA_CUBICULO_B2
f 665 666 667 668
f 669 672 671 670
f 665 669 670 666
f 666 670 671 667
f 667 671 672 668
f 668 672 669 665
g PUERTA_CUBICULO_B3
f 673 674 675 676
f 677 680 679 678
f 673 677 678 674
f 674 678 679 675
f 675 679 680 676
f 676 680 677 673
g urinario_1
f 681 682 683 684
f 685 688 687 686
f 681 685 686 682
f 682 686 687 683
f 683 687 688 684
f 684 688 685 681
g tuberia_fluxometro_1
f 689 690 698 697
f 690 691 699 698
f 691 692 700 699
f 692 693 701 700
f 693 694 702 701
f 694 695 703 702
f 695 696 704 703
f 696 689 697 704
f 689 690 691 692 693 694 695 696
f 704 703 702 701 700 699 698 697
g urinario_2
f 705 706 707 708
f 709 712 711 710
f 705 709 710 706
f 706 710 711 707
f 707 711 712 708
f 708 712 709 705
g tuberia_fluxometro_2
f 713 714 722 721
f 714 715 723 722
f 715 716 724 723
f 716 717 725 724
f 717 718 726 725
f 718 719 727 726
f 719 720 728 727
f 720 713 721 728
f 713 714 715 716 717 718 719 720
f 728 727 726 725 724 723 722 721
g urinario_3
f 729 730 731 732
f 733 736 735 734
f 729 733 734 730
f 730 734 735 731
f 731 735 736 732
f 732 736 733 729
g tuberia_fluxometro_3
f 737 738 746 745
f 738 739 747 746
f 739 740 748 747
f 740 741 749 748
f 741 742 750 749
f 742 743 751 750
f 743 744 752 751
f 744 737 745 752
f 737 738 739 740 741 742 743 744
f 752 751 750 749 748 747 746 745
g urinario_4
f 753 754 755 756
f 757 760 759 758
f 753 757 758 754
f 754 758 759 755
f 755 759 760 756
f 756 760 757 753
g tuberia_fluxometro_4
f 761 762 770 769
f 762 763 771 770
f 763 764 772 771
f 764 765 773 772
f 765 766 774 773
f 766 767 775 774
f 767 768 776 775
f 768 761 769 776
f 761 762 763 764 765 766 767 768
f 776 775 774 773 772 771 770 769
g meson_frente_concreto
f 777 778 779 780
f 781 784 783 782
f 777 781 782 778
f 778 782 783 779
f 779 783 784 780
f 780 784 781 777
g meson_tope_concreto
f 785 786 787 788
f 789 792 791 790
f 785 789 790 786
f 786 790 791 787
f 787 791 792 788
f 788 792 789 785
g lavamanos_1
f 793 794 810 809
f 794 795 811 810
f 795 796 812 811
f 796 797 813 812
f 797 798 814 813
f 798 799 815 814
f 799 800 816 815
f 800 801 817 816
f 801 802 818 817
f 802 803 819 818
f 803 804 820 819
f 804 805 821 820
f 805 806 822 821
f 806 807 823 822
f 807 808 824 823
f 808 793 809 824
f 793 794 795 796 797 798 799 800 801 802 803 804 805 806 807 808
f 824 823 822 821 820 819 818 817 816 815 814 813 812 811 810 809
g griferia_1
f 825 826 834 833
f 826 827 835 834
f 827 828 836 835
f 828 829 837 836
f 829 830 838 837
f 830 831 839 838
f 831 832 840 839
f 832 825 833 840
f 825 826 827 828 829 830 831 832
f 840 839 838 837 836 835 834 833
g lavamanos_2
f 841 842 858 857
f 842 843 859 858
f 843 844 860 859
f 844 845 861 860
f 845 846 862 861
f 846 847 863 862
f 847 848 864 863
f 848 849 865 864
f 849 850 866 865
f 850 851 867 866
f 851 852 868 867
f 852 853 869 868
f 853 854 870 869
f 854 855 871 870
f 855 856 872 871
f 856 841 857 872
f 841 842 843 844 845 846 847 848 849 850 851 852 853 854 855 856
f 872 871 870 869 868 867 866 865 864 863 862 861 860 859 858 857
g griferia_2
f 873 874 882 881
f 874 875 883 882
f 875 876 884 883
f 876 877 885 884
f 877 878 886 885
f 878 879 887 886
f 879 880 888 887
f 880 873 881 888
f 873 874 875 876 877 878 879 880
f 888 887 886 885 884 883 882 881
g lavamanos_3
f 889 890 906 905
f 890 891 907 906
f 891 892 908 907
f 892 893 909 908
f 893 894 910 909
f 894 895 911 910
f 895 896 912 911
f 896 897 913 912
f 897 898 914 913
f 898 899 915 914
f 899 900 916 915
f 900 901 917 916
f 901 902 918 917
f 902 903 919 918
f 903 904 920 919
f 904 889 905 920
f 889 890 891 892 893 894 895 896 897 898 899 900 901 902 903 904
f 920 919 918 917 916 915 914 913 912 911 910 909 908 907 906 905
g griferia_3
f 921 922 930 929
f 922 923 931 930
f 923 924 932 931
f 924 925 933 932
f 925 926 934 933
f 926 927 935 934
f 927 928 936 935
f 928 921 929 936
f 921 922 923 924 925 926 927 928
f 936 935 934 933 932 931 930 929
g espejo
f 937 938 939 940
f 941 944 943 942
f 937 941 942 938
f 938 942 943 939
f 939 943 944 940
f 940 944 941 937
g banco_asiento
f 945 946 947 948
f 949 952 951 950
f 945 949 950 946
f 946 950 951 947
f 947 951 952 948
f 948 952 949 945
g banco_pata_metal
f 953 954 955 956
f 957 960 959 958
f 953 957 958 954
f 954 958 959 955
f 955 959 960 956
f 956 960 957 953
g banco_pata_metal
f 961 962 963 964
f 965 968 967 966
f 961 965 966 962
f 962 966 967 963
f 963 967 968 964
f 964 968 965 961
g banco_pata_metal
f 969 970 971 972
f 973 976 975 974
f 969 973 974 970
f 970 974 975 971
f 971 975 976 972
f 972 976 973 969
g banco_pata_metal
f 977 978 979 980
f 981 984 983 982
f 977 981 982 978
f 978 982 983 979
f 979 983 984 980
f 980 984 981 977
g PUERTA_ACCESO_negro_mate
f 985 986 987 988
f 989 992 991 990
f 985 989 990 986
f 986 990 991 987
f 987 991 992 988
f 988 992 989 985
